<svg width="22" height="30" viewBox="0 0 22 30" fill="none" xmlns="http://www.w3.org/2000/svg">
<path d="M14.9991 28.3333L14.4444 29.1653C14.595 29.2657 14.7701 29.3233 14.9508 29.332C15.1316 29.3408 15.3114 29.3003 15.471 29.2149C15.6305 29.1295 15.7639 29.0024 15.857 28.8471C15.95 28.6919 15.9991 28.5143 15.9991 28.3333H14.9991ZM10.9991 25.6666L11.5538 24.8346C11.3895 24.7251 11.1965 24.6667 10.9991 24.6667C10.8017 24.6667 10.6087 24.7251 10.4444 24.8346L10.9991 25.6666ZM6.99912 28.3333H5.99912C5.99913 28.5143 6.04826 28.6919 6.14128 28.8471C6.23429 29.0024 6.3677 29.1295 6.52727 29.2149C6.68685 29.3003 6.86661 29.3408 7.04739 29.332C7.22817 29.3233 7.40319 29.2657 7.55378 29.1653L6.99912 28.3333ZM15.5538 27.5013L11.5538 24.8346L10.4444 26.4986L14.4444 29.1653L15.5538 27.5013ZM10.4444 24.8346L6.44445 27.5013L7.55378 29.1653L11.5538 26.4986L10.4444 24.8346ZM12.2684 3.36795L12.3245 3.43462L13.8484 2.13862L13.7911 2.07195L12.2684 3.36795ZM15.4111 4.71328L15.4978 4.70528L15.3378 2.71195L15.2511 2.71995L15.4111 4.71328ZM17.2938 6.49995L17.2858 6.58795L19.2791 6.74795L19.2871 6.66128L17.2938 6.49995ZM18.5644 9.67328L18.6311 9.73062L19.9271 8.20795L19.8605 8.15062L18.5644 9.67328ZM18.6311 12.2693L18.5644 12.3253L19.8605 13.8493L19.9271 13.792L18.6311 12.2693ZM17.2858 15.412L17.2938 15.4986L19.2871 15.3386L19.2791 15.252L17.2858 15.412ZM15.4991 17.2946L15.4111 17.2866L15.2511 19.28L15.3378 19.288L15.4991 17.2946ZM12.3258 18.5653L12.2684 18.632L13.7911 19.928L13.8484 19.8613L12.3258 18.5653ZM9.72978 18.632L9.67245 18.5653L8.14978 19.8613L8.20712 19.928L9.72978 18.632ZM6.58712 17.2866L6.50045 17.2933L6.66045 19.288L6.74712 19.2813L6.58712 17.2866ZM4.70445 15.5L4.71245 15.412L2.71912 15.252L2.71112 15.3386L4.70445 15.5ZM3.43378 12.3266L3.36712 12.2693L2.07112 13.792L2.13778 13.8493L3.43378 12.3266ZM3.36712 9.73062L3.43378 9.67328L2.13778 8.15062L2.07112 8.20795L3.36712 9.73062ZM4.71245 6.58795L4.70445 6.50128L2.71112 6.66128L2.71912 6.74795L4.71245 6.58795ZM6.49912 4.70528L6.58712 4.71328L6.74712 2.71995L6.66045 2.71195L6.49912 4.70528ZM9.67245 3.43462L9.72978 3.36795L8.20712 2.07195L8.14978 2.13862L9.67245 3.43462ZM6.58712 4.71328C7.16623 4.75972 7.74808 4.66789 8.28474 4.44534C8.82139 4.2228 9.29748 3.87592 9.67378 3.43328L8.14978 2.13862C7.97873 2.33967 7.76236 2.49722 7.5185 2.59829C7.27463 2.69936 7.01025 2.74106 6.74712 2.71995L6.58712 4.71328ZM4.70445 6.50128C4.68532 6.26069 4.71867 6.01747 4.8022 5.79103C4.88573 5.56459 5.01745 5.35899 5.18824 5.18846C5.35903 5.01792 5.56482 4.88651 5.79139 4.80332C6.01795 4.72012 6.25988 4.68713 6.50045 4.70662L6.66045 2.71328C6.13099 2.67062 5.59857 2.7435 5.10006 2.92688C4.60154 3.11027 4.14881 3.39978 3.77321 3.77538C3.39761 4.15098 3.1081 4.6037 2.92472 5.10222C2.74133 5.60074 2.66845 6.13315 2.71112 6.66262L4.70445 6.50128ZM3.43378 9.67328C3.87598 9.29699 4.22249 8.82105 4.44479 8.28465C4.6671 7.74826 4.75883 7.16673 4.71245 6.58795L2.71912 6.74795C2.76178 7.28128 2.54578 7.80395 2.13778 8.15062L3.43378 9.67328ZM3.36712 12.2693C3.18324 12.1128 3.03555 11.9183 2.93427 11.6991C2.83298 11.4799 2.78053 11.2414 2.78053 11C2.78053 10.7585 2.83298 10.52 2.93427 10.3008C3.03555 10.0816 3.18324 9.88708 3.36712 9.73062L2.07112 8.20795C1.66677 8.55217 1.34201 8.98011 1.1193 9.46218C0.896592 9.94424 0.78125 10.4689 0.78125 11C0.78125 11.531 0.896592 12.0557 1.1193 12.5377C1.34201 13.0198 1.66677 13.4477 2.07112 13.792L3.36712 12.2693ZM4.71245 15.412C4.75889 14.8328 4.66705 14.251 4.44451 13.7143C4.22196 13.1777 3.87508 12.7016 3.43245 12.3253L2.13778 13.8493C2.54578 14.196 2.76178 14.7186 2.71912 15.252L4.71245 15.412ZM6.49912 17.2946C6.25841 17.314 6.01638 17.2808 5.78978 17.1973C5.56317 17.1139 5.3574 16.9822 5.18672 16.8114C5.01603 16.6406 4.8845 16.4347 4.80123 16.208C4.71796 15.9814 4.68494 15.7393 4.70445 15.4986L2.71112 15.3386C2.66845 15.8681 2.74133 16.4005 2.92472 16.899C3.1081 17.3975 3.39761 17.8503 3.77321 18.2259C4.14881 18.6015 4.60154 18.891 5.10006 19.0744C5.59857 19.2577 6.13099 19.3306 6.66045 19.288L6.49912 17.2946ZM12.2684 18.632C12.112 18.8158 11.9174 18.9635 11.6983 19.0648C11.4791 19.1661 11.2406 19.2185 10.9991 19.2185C10.7577 19.2185 10.5191 19.1661 10.3 19.0648C10.0808 18.9635 9.88625 18.8158 9.72978 18.632L8.20712 19.928C8.55134 20.3323 8.97928 20.6571 9.46134 20.8798C9.94341 21.1025 10.4681 21.2178 10.9991 21.2178C11.5301 21.2178 12.0548 21.1025 12.5369 20.8798C13.019 20.6571 13.4469 20.3323 13.7911 19.928L12.2684 18.632ZM17.2938 15.4986C17.3131 15.7393 17.2799 15.9814 17.1965 16.208C17.113 16.4346 16.9814 16.6403 16.8105 16.811C16.6397 16.9817 16.4339 17.1132 16.2072 17.1965C15.9805 17.2798 15.7385 17.3128 15.4978 17.2933L15.3378 19.288C15.8672 19.3306 16.3997 19.2577 16.8982 19.0744C17.3967 18.891 17.8494 18.6015 18.225 18.2259C18.6006 17.8503 18.8901 17.3975 19.0735 16.899C19.2569 16.4005 19.3298 15.8681 19.2871 15.3386L17.2938 15.4986ZM18.5644 12.3253C18.1221 12.7017 17.7754 13.1779 17.5531 13.7145C17.3308 14.2512 17.2392 14.833 17.2858 15.412L19.2791 15.252C19.2364 14.7186 19.4524 14.196 19.8605 13.8493L18.5644 12.3253ZM18.6311 9.73062C18.815 9.88708 18.9627 10.0816 19.064 10.3008C19.1652 10.52 19.2177 10.7585 19.2177 11C19.2177 11.2414 19.1652 11.4799 19.064 11.6991C18.9627 11.9183 18.815 12.1128 18.6311 12.2693L19.9271 13.792C20.3315 13.4477 20.6562 13.0198 20.8789 12.5377C21.1016 12.0557 21.217 11.531 21.217 11C21.217 10.4689 21.1016 9.94424 20.8789 9.46218C20.6562 8.98011 20.3315 8.55217 19.9271 8.20795L18.6311 9.73062ZM17.2858 6.58795C17.2393 7.16706 17.3312 7.74892 17.5537 8.28557C17.7763 8.82223 18.1231 9.29832 18.5658 9.67462L19.8605 8.15062C19.6594 7.97956 19.5018 7.76319 19.4008 7.51933C19.2997 7.27547 19.258 7.01108 19.2791 6.74795L17.2858 6.58795ZM15.4991 4.70528C15.7398 4.68595 15.9819 4.71915 16.2085 4.80259C16.4351 4.88603 16.6408 5.01771 16.8115 5.18853C16.9822 5.35934 17.1137 5.56521 17.197 5.79187C17.2803 6.01854 17.3133 6.25926 17.2938 6.49995L19.2871 6.66128C19.3298 6.13182 19.2569 5.59941 19.0735 5.10089C18.8901 4.60237 18.6006 4.14965 18.225 3.77405C17.8494 3.39844 17.3967 3.10894 16.8982 2.92555C16.3997 2.74217 15.8672 2.66929 15.3378 2.71195L15.4991 4.70528ZM12.3245 3.43462C12.7007 3.87682 13.178 4.22333 13.7144 4.44563C14.2508 4.66793 14.8323 4.75967 15.4111 4.71328L15.2511 2.71995C14.988 2.74106 14.7236 2.69936 14.4797 2.59829C14.2359 2.49722 14.0195 2.33967 13.8484 2.13862L12.3245 3.43462ZM13.7924 2.07195C13.4482 1.66714 13.0201 1.34199 12.5378 1.119C12.0555 0.89601 11.5305 0.780518 10.9991 0.780518C10.4677 0.780518 9.94272 0.89601 9.46041 1.119C8.97809 1.34199 8.55 1.66714 8.20578 2.07195L9.72978 3.36795C9.88625 3.18407 10.0808 3.03638 10.3 2.9351C10.5191 2.83382 10.7577 2.78136 10.9991 2.78136C11.2406 2.78136 11.4791 2.83382 11.6983 2.9351C11.9174 3.03638 12.112 3.18407 12.2684 3.36795L13.7924 2.07195ZM9.67245 18.5653C9.34604 18.1817 8.94413 17.8696 8.49175 17.6482C8.03938 17.4268 7.54625 17.301 7.04312 17.2786L6.95512 19.2773C7.41378 19.2973 7.84845 19.5066 8.14978 19.8613L9.67245 18.5653ZM7.04312 17.2786C6.8911 17.2719 6.73881 17.2745 6.58712 17.2866L6.74712 19.28C6.81631 19.2744 6.8858 19.2735 6.95512 19.2773L7.04312 17.2786ZM7.99912 28.3333V18.2773H5.99912V28.3333H7.99912ZM15.4125 17.2866C15.2603 17.2745 15.1076 17.2718 14.9551 17.2786L15.0431 19.2773C15.1124 19.2735 15.1819 19.2744 15.2511 19.28L15.4125 17.2866ZM14.9551 17.2786C14.4518 17.3008 13.9584 17.4265 13.5058 17.6479C13.0531 17.8693 12.6523 18.1816 12.3258 18.5653L13.8484 19.8613C13.9968 19.6872 14.1795 19.5455 14.385 19.445C14.5905 19.3445 14.8146 19.2874 15.0431 19.2773L14.9551 17.2786ZM13.9991 18.2786V28.3333H15.9991V18.2773L13.9991 18.2786Z" fill="#1BDEFD"/>
<path d="M13.6654 9.66663L9.66536 13.6666L8.33203 12.3333" stroke="#1BDEFD" stroke-width="1.5" stroke-linecap="round" stroke-linejoin="round"/>
</svg>
